<?xml version="1.0" standalone="no"?>
<!DOCTYPE svg PUBLIC "-//W3C//DTD SVG 20010904//EN"
 "http://www.w3.org/TR/2001/REC-SVG-20010904/DTD/svg10.dtd">
<svg version="1.0" xmlns="http://www.w3.org/2000/svg" width="134.000000pt" height="99.000000pt" viewBox="0 0 134.000000 99.000000" preserveAspectRatio="xMidYMid meet">
    <g transform="translate(0.000000,99.000000) scale(0.100000,-0.100000)" fill="#ca2b2b" stroke="none">
        <path d="M570 973 c-25 -8 -57 -24 -72 -34 -22 -16 -31 -17 -55 -8 -69 27
-147 3 -184 -58 -14 -22 -31 -34 -54 -39 -88 -16 -121 -116 -59 -175 22 -21
38 -25 122 -29 l97 -5 29 -55 c16 -30 67 -93 112 -140 46 -47 88 -98 93 -113
10 -25 14 -27 71 -27 57 0 61 2 71 27 5 15 48 67 95 115 131 136 161 218 124
339 -18 61 -30 81 -78 128 -42 42 -71 61 -111 74 -66 21 -141 21 -201 0z m62
-34 c-31 -54 -46 -136 -46 -249 0 -94 4 -115 33 -195 18 -49 35 -100 38 -112
3 -13 8 -23 12 -23 13 0 80 216 86 280 11 111 -11 228 -63 333 -2 5 14 -1 36
-12 106 -54 168 -228 129 -362 -10 -33 -40 -88 -76 -137 -32 -45 -62 -93 -65
-107 -5 -21 -12 -25 -46 -25 -34 0 -41 4 -46 25 -3 14 -33 62 -65 107 -63 87
-89 153 -89 228 0 103 59 220 133 265 23 13 43 23 45 21 1 -2 -6 -19 -16 -37z
m-207 -44 c12 -3 10 -11 -10 -41 -28 -41 -55 -123 -55 -166 l0 -28 -70 0 c-96
0 -140 24 -140 76 0 28 47 64 84 64 31 0 38 5 49 33 16 38 36 56 74 66 27 8
33 7 68 -4z" />
        <path d="M1007 489 c-21 -11 -48 -36 -59 -55 -11 -19 -26 -34 -34 -34 -72 0
-123 -109 -76 -166 32 -40 54 -44 237 -44 225 0 255 13 255 108 0 49 -23 79
-72 95 -22 8 -47 27 -60 47 -27 39 -81 70 -123 70 -16 -1 -47 -10 -68 -21z
m144 -55 c15 -15 29 -36 31 -48 2 -16 13 -22 41 -27 21 -3 45 -13 54 -22 21
-20 20 -63 -2 -87 -17 -18 -32 -20 -194 -20 -202 0 -221 6 -221 65 0 39 29 65
72 65 22 0 31 7 39 27 32 84 118 106 180 47z" />
        <path d="M183 300 c-18 -10 -39 -32 -47 -49 -10 -19 -26 -32 -46 -36 -62 -14
-100 -99 -70 -156 23 -42 58 -49 253 -49 170 0 186 2 210 20 39 31 52 81 32
124 -15 31 -64 66 -94 66 -6 0 -18 14 -26 30 -35 67 -143 93 -212 50z m145
-36 c13 -9 30 -31 38 -50 12 -27 20 -34 43 -34 62 0 96 -66 56 -110 -17 -19
-32 -20 -198 -20 -154 0 -183 2 -199 17 -41 37 -7 113 51 113 24 0 33 7 48 38
32 66 100 85 161 46z" />
        <path d="M602 223 l3 -48 65 0 65 0 3 48 3 47 -71 0 -71 0 3 -47z" />
    </g>
</svg>