<svg xmlns="http://www.w3.org/2000/svg" xmlns:xlink="http://www.w3.org/1999/xlink" width="74" height="99" viewBox="0 0 74 99"><defs><path id="7ra6a" d="M499.45 1826c7.81 0 14.15 6.24 14.15 13.94 0 7.69-6.34 13.93-14.15 13.93a14.04 14.04 0 0 1-14.15-13.93c0-7.7 6.33-13.94 14.15-13.94zm55.56 35.54V1872h-3.93v28.76h-38.24v-21.64l-.48 9.2h-.9v30.32h.98l5.68 1.21v5.16h-4.84l-5.64-.9-.05.9h-6.26v-31.17h-3.56V1925h-6.24l-.06-.9-5.64.9H481v-5.16l5.68-1.2h.97v-30.33h-.74l-.26-5.2h-4.86l.75-25.62 11.45-1.52 5.21 6.16 5.4-6.16h7.96l.28.01v-5.79h10.74v-2.84h5.7a3.32 3.32 0 0 1 3.4-3.22c1.88 0 3.4 1.44 3.4 3.22h5.7v2.84h9.3v11.35zm-23.7-14c0 .74.61 1.35 1.37 1.35.76 0 1.38-.6 1.38-1.36 0-.75-.62-1.35-1.38-1.35-.76 0-1.38.6-1.38 1.35zm16.63 24.45h-2.49v-10.45h2.49v-8.25h-6.16v2.19h-18.2v-2.2h-7.6v44.38h31.96z"/></defs><g><g transform="translate(-481 -1826)"><use fill="#fff" xlink:href="#7ra6a"/></g></g></svg>